<mxfile host="65bd71144e">
    <diagram name="Steam Spider Simple" id="steam-algorithm-simple">
        <mxGraphModel dx="379" dy="795" grid="1" gridSize="10" guides="1" tooltips="1" connect="1" arrows="1" fold="1" page="1" pageScale="1" pageWidth="827" pageHeight="1169" math="0" shadow="0">
            <root>
                <mxCell id="0"/>
                <mxCell id="1" parent="0"/>
                <mxCell id="2" value="Start spider" style="ellipse;whiteSpace=wrap;html=1;aspect=fixed;" parent="1" vertex="1">
                    <mxGeometry x="100" y="40" width="120" height="60" as="geometry"/>
                </mxCell>
        <mxCell id="3" value="Request Steam Top Sellers\n(Playwright scrolls page)" style="rounded=1;whiteSpace=wrap;html=1;" vertex="1" parent="1">t>
          <mxGeometry x="100" y="120" width="220" height="60" as="geometry" />
        </mxCell>
        <mxCell id="4" value="For each game:\n- Extract info\n- Yield result" style="rounded=1;whiteSpace=wrap;html=1;" vertex="1" parent="1">          <mxGeometry x="100" y="200" width="220" height="60" as="geometry" />        </mxCell>        <mxCell id="5" value="Output to XML" style="ellipse;whiteSpace=wrap;html=1;aspect=fixed;" vertex="1" parent="1">          <mxGeometry x="100" y="280" width="120" height="60" as="geometry" />        </mxCell>        <mxCell id="6" style="edgeStyle=orthogonalEdgeStyle;endArrow=block;html=1;" edge="1" parent="1" source="2" target="3">          <mxGeometry relative="1" as="geometry" />        </mxCell>        <mxCell id="7" style="edgeStyle=orthogonalEdgeStyle;endArrow=block;html=1;" edge="1" parent="1" source="3" target="4">          <mxGeometry relative="1" as="geometry" />        </mxCell>        <mxCell id="8" style="edgeStyle=orthogonalEdgeStyle;endArrow=block;html=1;" edge="1" parent="1" source="4" target="5">          <mxGeometry relative="1" as="geometry" />        </mxCell>      </root>    </mxGraphModel>  </diagram>
    <diagram name="Steam Spider Alt Simple" id="steam-algorithm-alt-simple">
        <mxGraphModel dx="1000" dy="1000" grid="1" gridSize="10" guides="1" tooltips="1" connect="1" arrows="1" fold="1" page="1" pageScale="1" pageWidth="827" pageHeight="1169" math="0" shadow="0">
            <root>
                <mxCell id="0" />
                <mxCell id="1" parent="0" />
                <mxCell id="2" value="Start" style="ellipse;whiteSpace=wrap;html=1;aspect=fixed;" vertex="1" parent="1">
                    <mxGeometry x="120" y="40" width="100" height="50" as="geometry" />
                </mxCell>
                <mxCell id="3" value="Request page with Playwright" style="rounded=1;whiteSpace=wrap;html=1;" vertex="1" parent="1">
                    <mxGeometry x="120" y="110" width="200" height="50" as="geometry" />
                </mxCell>
                <mxCell id="4" value="Scroll to load more games" style="rounded=1;whiteSpace=wrap;html=1;" vertex="1" parent="1">
                    <mxGeometry x="120" y="180" width="200" height="50" as="geometry" />
                </mxCell>
                <mxCell id="5" value="For each game:\nExtract info (name, price, image, link)" style="rounded=1;whiteSpace=wrap;html=1;" vertex="1" parent="1">
                    <mxGeometry x="120" y="250" width="250" height="60" as="geometry" />
                </mxCell>
                <mxCell id="6" value="Save to XML" style="ellipse;whiteSpace=wrap;html=1;aspect=fixed;" vertex="1" parent="1">
                    <mxGeometry x="120" y="330" width="100" height="50" as="geometry" />
                </mxCell>
                <mxCell id="7" style="edgeStyle=orthogonalEdgeStyle;endArrow=block;html=1;" edge="1" parent="1" source="2" target="3">
                    <mxGeometry relative="1" as="geometry" />
                </mxCell>
                <mxCell id="8" style="edgeStyle=orthogonalEdgeStyle;endArrow=block;html=1;" edge="1" parent="1" source="3" target="4">
                    <mxGeometry relative="1" as="geometry" />
                </mxCell>
                <mxCell id="9" style="edgeStyle=orthogonalEdgeStyle;endArrow=block;html=1;" edge="1" parent="1" source="4" target="5">
                    <mxGeometry relative="1" as="geometry" />
                </mxCell>
                <mxCell id="10" style="edgeStyle=orthogonalEdgeStyle;endArrow=block;html=1;" edge="1" parent="1" source="5" target="6">
                    <mxGeometry relative="1" as="geometry" />
                </mxCell>
            </root>
        </mxGraphModel>
    </diagram>
    <diagram name="Steam Spider Minimal" id="steam-algorithm-minimal">
        <mxGraphModel dx="1000" dy="1000" grid="1" gridSize="10" guides="1" tooltips="1" connect="1" arrows="1" fold="1" page="1" pageScale="1" pageWidth="827" pageHeight="1169" math="0" shadow="0">
            <root>
                <mxCell id="0" />
                <mxCell id="1" parent="0" />
                <mxCell id="2" value="Start spider" style="ellipse;whiteSpace=wrap;html=1;aspect=fixed;" vertex="1" parent="1">
                    <mxGeometry x="120" y="40" width="120" height="60" as="geometry" />
                </mxCell>
                <mxCell id="3" value="Request page (Playwright)" style="rounded=1;whiteSpace=wrap;html=1;" vertex="1" parent="1">
                    <mxGeometry x="120" y="120" width="180" height="60" as="geometry" />
                </mxCell>
                <mxCell id="4" value="Scroll to load games" style="rounded=1;whiteSpace=wrap;html=1;" vertex="1" parent="1">
                    <mxGeometry x="120" y="200" width="180" height="60" as="geometry" />
                </mxCell>
                <mxCell id="5" value="Extract info for each game" style="rounded=1;whiteSpace=wrap;html=1;" vertex="1" parent="1">
                    <mxGeometry x="120" y="280" width="180" height="60" as="geometry" />
                </mxCell>
                <mxCell id="6" value="Yield game data" style="ellipse;whiteSpace=wrap;html=1;aspect=fixed;" vertex="1" parent="1">
                    <mxGeometry x="120" y="360" width="120" height="60" as="geometry" />
                </mxCell>
                <mxCell id="7" style="edgeStyle=orthogonalEdgeStyle;endArrow=block;html=1;" edge="1" parent="1" source="2" target="3">
                    <mxGeometry relative="1" as="geometry" />
                </mxCell>
                <mxCell id="8" style="edgeStyle=orthogonalEdgeStyle;endArrow=block;html=1;" edge="1" parent="1" source="3" target="4">
                    <mxGeometry relative="1" as="geometry" />
                </mxCell>
                <mxCell id="9" style="edgeStyle=orthogonalEdgeStyle;endArrow=block;html=1;" edge="1" parent="1" source="4" target="5">
                    <mxGeometry relative="1" as="geometry" />
                </mxCell>
                <mxCell id="10" style="edgeStyle=orthogonalEdgeStyle;endArrow=block;html=1;" edge="1" parent="1" source="5" target="6">
                    <mxGeometry relative="1" as="geometry" />
                </mxCell>
            </root>
        </mxGraphModel>
    </diagram>
    <diagram name="Steam Spider Flowchart" id="steam-algorithm-latest">
        <mxGraphModel dx="1000" dy="1000" grid="1" gridSize="10" guides="1" tooltips="1" connect="1" arrows="1" fold="1" page="1" pageScale="1" pageWidth="827" pageHeight="1169" math="0" shadow="0">
            <root>
                <mxCell id="0" />
                <mxCell id="1" parent="0" />
                <mxCell id="2" value="Start spider" style="ellipse;whiteSpace=wrap;html=1;aspect=fixed;" vertex="1" parent="1">
                    <mxGeometry x="120" y="40" width="120" height="60" as="geometry" />
                </mxCell>
                <mxCell id="3" value="Request Steam Top Sellers (Playwright)" style="rounded=1;whiteSpace=wrap;html=1;" vertex="1" parent="1">
                    <mxGeometry x="120" y="120" width="220" height="60" as="geometry" />
                </mxCell>
                <mxCell id="4" value="Scroll page to load more games (JS)" style="rounded=1;whiteSpace=wrap;html=1;" vertex="1" parent="1">
                    <mxGeometry x="120" y="200" width="220" height="60" as="geometry" />
                </mxCell>
                <mxCell id="5" value="For each game row:\n- Extract name, discount, prices, image, link\n- If no final_price, try fallback\n- If name and final_price, yield game dict" style="rounded=1;whiteSpace=wrap;html=1;" vertex="1" parent="1">
                    <mxGeometry x="120" y="280" width="320" height="100" as="geometry" />
                </mxCell>
                <mxCell id="6" value="Output: Game dicts to XML" style="ellipse;whiteSpace=wrap;html=1;aspect=fixed;" vertex="1" parent="1">
                    <mxGeometry x="120" y="400" width="160" height="60" as="geometry" />
                </mxCell>
                <mxCell id="7" style="edgeStyle=orthogonalEdgeStyle;endArrow=block;html=1;" edge="1" parent="1" source="2" target="3">
                    <mxGeometry relative="1" as="geometry" />
                </mxCell>
                <mxCell id="8" style="edgeStyle=orthogonalEdgeStyle;endArrow=block;html=1;" edge="1" parent="1" source="3" target="4">
                    <mxGeometry relative="1" as="geometry" />
                </mxCell>
                <mxCell id="9" style="edgeStyle=orthogonalEdgeStyle;endArrow=block;html=1;" edge="1" parent="1" source="4" target="5">
                    <mxGeometry relative="1" as="geometry" />
                </mxCell>
                <mxCell id="10" style="edgeStyle=orthogonalEdgeStyle;endArrow=block;html=1;" edge="1" parent="1" source="5" target="6">
                    <mxGeometry relative="1" as="geometry" />
                </mxCell>
            </root>
        </mxGraphModel>
    </diagram>
</mxfile>